<?xml version="1.0" encoding="utf-8"?>
<!-- Generator: Adobe Illustrator 17.0.0, SVG Export Plug-In . SVG Version: 6.00 Build 0)  -->
<!DOCTYPE svg PUBLIC "-//W3C//DTD SVG 1.1//EN" "http://www.w3.org/Graphics/SVG/1.1/DTD/svg11.dtd">
<svg version="1.1" id="Layer_1" xmlns="http://www.w3.org/2000/svg" xmlns:xlink="http://www.w3.org/1999/xlink" x="0px" y="0px"
	 width="1292.1px" height="126.7px" viewBox="0 0 1292.1 126.7" style="enable-background:new 0 0 1292.1 126.7;"
	 xml:space="preserve">
<g>
	<polygon style="fill:#999999;" points="599.2,87.4 579,71.7 586,56.6 576.4,62.7 576.4,62.5 576.7,61.9 576.7,61.9 565.8,44.7 
		570.6,50.4 543.3,42.8 554.5,46 522.4,45.8 550.8,46.7 495,51.8 494.9,51.8 453.4,50.7 474.1,53.6 430,48.5 455.1,54.1 412.5,44.8 
		419.7,49.3 377.6,43.3 347.3,36.9 369.8,47 341.6,39.1 378.4,52.1 293.7,33.3 210.8,22.9 224.8,30.8 191.9,18.8 216.3,31.9 
		188.5,21.8 132.1,17.2 76.6,11.3 99.1,16.4 59.6,7.9 74.7,13.5 74.1,13.3 72.2,12.9 72.2,12.9 21.6,1 59.9,12.3 19.5,2.5 38.1,9.6 
		0,0 70.9,27.5 121.6,30.7 83.6,30 122.6,32.5 136.4,33 87.8,34.5 154.2,35.2 154.2,35.2 156.8,35.3 176.8,35.7 178.3,35.8 
		116.7,35.3 190.3,37.8 121.1,38.3 198.2,39.4 147.9,41.5 231.5,54.5 272,51.8 236.6,57.2 294.4,53.2 306.4,53.1 262.6,57.3 
		314.5,54.5 313.4,54.7 298.9,55.9 270.4,59 299.8,56.8 315.1,56.1 330,54.8 330,54.8 332.2,54.6 337.2,54 289.5,59.1 239.6,58.8 
		262.1,63.1 219.4,57.8 257.6,64.8 221.6,60.4 173.3,63 123.6,64.5 148,65.9 105.9,63.8 125.6,66.3 125,66.3 122.9,66.2 122.9,66.2 
		67.5,62.8 113,67 68.3,64.1 92.9,67.4 50.1,64.4 144.7,77 186.7,73.9 157.8,77.4 190.3,75.2 201.1,74.1 167.8,80.2 217.5,73.8 
		217.5,73.8 219.6,73.6 234.7,71.7 236.1,71.7 190.2,77.8 247.9,71.8 198.1,79.5 256.1,72.2 222.7,79 304,79.7 329.3,73.4 
		311.9,81.1 347.8,72.1 356.4,70.8 331,78.5 364.5,71 363.9,71.1 355.2,73.6 339.3,78.9 357.3,74.2 367.4,72 376.3,69.5 376.3,69.5 
		377.5,69.1 380.3,68.2 366.1,73.5 361.4,74.6 306.7,83.9 330.3,84.6 290.3,85.4 329.8,86.3 296.1,87.1 264.9,94.3 230.9,100.9 
		251,99.2 216.7,102.3 235.2,102 234.7,102 233,102.2 233,102.2 186.8,105.8 227.1,103.9 189.6,106.7 212.9,106.4 176.6,108.9 
		266.6,107.7 292.5,100.9 276.9,106.6 297.1,101.4 303.3,99.4 288.9,107.6 314.9,97.4 314.9,97.4 316.1,97 324.3,94 325.1,93.8 
		301.3,103.3 334,92.6 309.9,103.7 340.7,91.9 327.3,100.7 388.1,92.2 396.4,84.8 396.2,92.4 408,81.8 412,79.8 405.9,88.3 
		418.3,79.1 418.2,79.3 415.7,82 412.6,87.7 418.3,82.2 422.1,79.5 424.6,76.7 424.6,76.7 424.9,76.3 425.5,75.3 423.1,81.3 
		422.5,81.9 396.3,94.5 414.8,92.5 386.4,97.3 417.1,93.9 393.3,97.9 381.2,106.6 366.2,115 378.6,111.7 357.9,117.6 371.1,115.4 
		370.8,115.5 369.8,115.8 369.8,115.8 341.2,123.3 368.1,117.7 344.6,123.7 361.4,121 338.3,126.7 403.2,116.4 411.9,108.6 
		409.2,114.5 416.1,108.5 417.6,106.3 419.6,113.9 423.1,103.6 423.1,103.6 423.4,103.2 424.8,100.1 425.1,99.9 422.2,109.5 
		429.9,98.1 429.2,108.8 433.9,96.9 437.4,104.8 469.4,92.1 464.2,85.8 475.7,91.4 468.1,82.3 468.1,80.5 476.6,87.4 471.6,79.2 
		471.8,79.4 474.2,81.7 480.6,86.2 476.4,81.6 475.1,79.2 472.6,76.8 472.6,76.8 472.1,76.5 471.1,75.7 480.1,81.9 481.1,83.1 
		481.3,83.2 482.1,84.3 482.2,84.2 483.4,95.7 493.9,92 480.9,99 498,92.8 487.1,98.6 493.1,106.6 496.5,114.7 499.9,110.7 
		494.7,117.6 500.8,114.4 500.7,114.5 500.5,114.8 492.1,123.9 502.5,116.5 495.2,123.8 503.2,119.7 495.7,126.7 526.6,111.3 
		519.6,104.4 527.8,109.2 522.6,103.9 520,102.1 534.7,107.6 519.4,99.4 519.4,99.4 519,99.1 514.6,96.6 514.5,96.4 528.8,103.9 
		514.9,94.4 533.1,102.6 515.8,93.1 532.1,98.6 534.2,85.3 519.2,81.1 537.7,84 516.2,78.1 513,76.7 531.4,80.9 513.5,75.3 
		514,75.4 519.7,76.9 532.4,79.5 521.2,76.5 516,74.9 510.1,73.4 510.1,73.4 509.1,73.2 506.9,72.7 530.2,77.9 525.5,73.4 
		531.7,74.3 528.3,73 540.1,74.7 529.6,71.5 534.5,72.6 531.8,70.9 540.9,73.5 535.6,70.3 537.5,71 538.5,71.4 538.5,71.4 
		551.4,83.4 552.3,77.2 613.4,95 657.5,84.4 599.2,87.4 	"/>
	<polygon style="fill:#999999;" points="1102.5,106.7 1065,103.9 1105.3,105.8 1059.1,102.2 1059.1,102.2 1057.4,102 1056.9,102 
		1075.4,102.3 1041.1,99.2 1061.2,100.9 1027.2,94.3 995.9,87.1 962.3,86.3 1001.8,85.4 961.8,84.6 985.4,83.9 930.7,74.6 926,73.5 
		911.8,68.2 914.6,69.1 915.8,69.5 915.8,69.5 924.7,72 934.8,74.2 952.8,78.8 936.9,73.6 928.2,71.1 927.6,70.9 961.1,78.5 
		935.7,70.8 944.2,72.1 980.2,81.1 962.8,73.4 988.1,79.7 1069.4,79 1035.9,72.2 1094,79.5 1044.2,71.8 1101.9,77.8 1056,71.7 
		1057.4,71.7 1072.5,73.6 1074.6,73.8 1074.6,73.8 1124.3,80.2 1091,74.1 1101.8,75.2 1134.3,77.4 1105.4,73.9 1147.4,77 1242,64.4 
		1199.2,67.4 1223.8,64.1 1179.1,67 1224.6,62.8 1169.2,66.2 1169.2,66.2 1167.1,66.3 1166.5,66.3 1186.2,63.8 1144.1,65.9 
		1168.5,64.5 1118.8,63 1070.5,60.4 1034.5,64.8 1072.7,57.8 1030,63.1 1052.5,58.8 1002.6,59.1 954.9,54 959.9,54.6 962.1,54.8 
		962.1,54.8 977,56.1 992.3,56.8 1021.7,59 993.2,55.9 978.7,54.7 977.6,54.5 1029.5,57.3 985.7,53.1 997.7,53.2 1055.5,57.2 
		1020,51.8 1060.6,54.5 1144.2,41.5 1093.9,39.4 1170.9,38.3 1101.8,37.8 1175.4,35.3 1113.7,35.8 1115.3,35.7 1135.3,35.3 
		1137.9,35.2 1137.9,35.2 1204.3,34.5 1155.7,33 1169.5,32.5 1208.5,30 1170.5,30.7 1221.1,27.5 1292.1,0 1254,9.6 1272.6,2.5 
		1232.2,12.3 1270.5,1 1219.9,12.9 1219.9,12.9 1218,13.3 1217.4,13.5 1232.5,7.9 1193,16.4 1215.5,11.3 1160,17.2 1103.6,21.8 
		1075.8,31.9 1100.2,18.8 1067.3,30.8 1081.3,22.9 998.4,33.3 913.7,52.1 950.5,39.1 922.3,47 944.8,36.9 914.5,43.3 872.4,49.3 
		879.6,44.8 837,54.1 862.1,48.5 818,53.6 838.7,50.7 797.2,51.8 797.1,51.8 741.3,46.7 769.7,45.8 737.6,46 748.8,42.8 721.5,50.4 
		726.3,44.7 715.4,61.9 715.4,61.9 715.7,62.5 715.7,62.7 706.1,56.6 713.1,71.7 692.9,87.4 634.6,84.4 678.7,95 739.8,77.2 
		740.7,83.4 753.6,71.4 753.6,71.4 754.6,71 756.5,70.3 751.2,73.5 760.3,70.9 757.6,72.6 762.5,71.5 752,74.7 763.8,73 760.4,74.3 
		766.6,73.4 761.9,77.9 785.2,72.7 783,73.2 782,73.4 782,73.4 776,74.9 770.9,76.5 759.7,79.5 772.4,76.9 778.1,75.4 778.6,75.3 
		760.7,80.9 779.1,76.7 775.9,78.1 754.4,84 772.9,81.1 757.9,85.3 760,98.6 776.3,93.1 759,102.6 777.2,94.4 763.2,103.9 
		777.6,96.4 777.5,96.6 773.1,99.1 772.7,99.4 772.7,99.4 757.4,107.6 772.1,102.1 769.5,103.9 764.3,109.2 772.5,104.4 
		765.5,111.3 796.4,126.7 788.9,119.7 796.9,123.8 789.6,116.5 800,123.9 791.6,114.8 791.4,114.5 791.3,114.4 797.4,117.6 
		792.1,110.7 795.6,114.7 799,106.6 805,98.6 794.1,92.8 811.2,99 798.2,92 808.7,95.7 809.8,84.2 810,84.3 810.8,83.2 810.9,83.1 
		812,81.9 821,75.7 820,76.5 819.5,76.8 819.5,76.8 817,79.2 815.7,81.6 811.5,86.2 817.9,81.7 820.3,79.4 820.5,79.2 815.5,87.4 
		824,80.5 824,82.3 816.4,91.4 827.9,85.8 822.7,92.1 854.7,104.8 858.2,96.9 862.9,108.8 862.2,98.1 869.9,109.5 867,99.9 
		867.3,100.1 868.7,103.2 869,103.6 869,103.6 872.5,113.9 874.5,106.3 876,108.5 882.9,114.5 880.2,108.6 888.9,116.4 953.8,126.7 
		930.7,121 947.5,123.7 924,117.7 950.9,123.3 922.2,115.8 922.2,115.8 921.2,115.5 921,115.4 934.2,117.6 913.5,111.7 925.9,115 
		910.8,106.6 898.8,97.9 875,93.9 905.7,97.3 877.3,92.5 895.8,94.5 869.6,81.9 869,81.3 866.6,75.3 867.2,76.3 867.5,76.7 
		867.5,76.7 870,79.5 873.8,82.2 879.5,87.7 876.4,82 873.9,79.3 873.8,79.1 886.2,88.3 880.1,79.8 884.1,81.8 895.9,92.4 
		895.7,84.8 904,92.2 964.8,100.7 951.4,91.9 982.1,103.7 958.1,92.6 990.8,103.3 967,93.8 967.8,94 976,97 977.2,97.4 977.2,97.4 
		1003.2,107.6 988.8,99.4 995,101.4 1015.2,106.6 999.6,100.9 1025.5,107.7 1115.5,108.9 1079.2,106.4 1102.5,106.7 	"/>
</g>
<g>
</g>
<g>
</g>
<g>
</g>
<g>
</g>
<g>
</g>
<g>
</g>
<g>
</g>
<g>
</g>
<g>
</g>
<g>
</g>
<g>
</g>
<g>
</g>
<g>
</g>
<g>
</g>
<g>
</g>
<g>
</g>
<g>
</g>
</svg>
